<svg version='1.1' baseProfile='full' xmlns='http://www.w3.org/2000/svg' width='358' height='130'><g transform='translate(5, 5)'><g transform='scale(1) translate(20, -50)'><g><g><polyline points="20,100 32,100 44,100 " style="fill: none; stroke: black;"></polyline><g transform="translate(30, 105)"><text text-anchor="start" y="3" transform="rotate(90)" font-size="12">148x148</text></g></g><g transform="translate(-14, 105)"><text text-anchor="start" y="3" transform="rotate(90)" font-size="12">150x150</text></g></g><g><g><polyline points="64,100 76,100 88,100 " style="fill: none; stroke: black;"></polyline><g transform="translate(74, 105)"><text text-anchor="start" y="3" transform="rotate(90)" font-size="12">74x74</text></g></g></g><g><g><polyline points="108,100 120,100 132,100 " style="fill: none; stroke: black;"></polyline><g transform="translate(118, 105)"><text text-anchor="start" y="3" transform="rotate(90)" font-size="12">72x72</text></g></g></g><g><g><polyline points="152,100 164,100 176,100 " style="fill: none; stroke: black;"></polyline><g transform="translate(162, 105)"><text text-anchor="start" y="3" transform="rotate(90)" font-size="12">36x36</text></g></g></g><g><g><polyline points="196,100 208,100 220,100 " style="fill: none; stroke: black;"></polyline></g></g><g><g><polyline points="240,100 252,100 264,100 " style="fill: none; stroke: black;"></polyline></g></g><g><g><polyline points="284,100 296,100 308,100 " style="fill: none; stroke: black;"></polyline></g></g><g></g><g><g transform="translate(0, 50)"><path d="M 0 0 L 20 0.6140350877193015 V 99.3859649122807 L 0 100 V 0 z" style="fill: rgb(33, 150, 243); stroke: rgb(12, 124, 213); stroke-width: 4; stroke-linejoin: round;"></path><g></g><text text-anchor="middle" x="10" y="117" font-size="12">32</text></g></g><g><g transform="translate(44, 50)"><path d="M 0 0.6140350877193015 L 20 23.333333333333336 V 76.66666666666666 L 0 99.3859649122807 V 0.6140350877193015 z" style="fill: rgb(139, 195, 74); stroke: rgb(113, 164, 54); stroke-width: 4; stroke-linejoin: round;"></path><g></g><text text-anchor="middle" x="10" y="116.3859649122807" font-size="12">32</text></g></g><g><g transform="translate(88, 50)"><path d="M 0 23.333333333333336 L 20 23.94736842105263 V 76.05263157894737 L 0 76.66666666666666 V 23.333333333333336 z" style="fill: rgb(33, 150, 243); stroke: rgb(12, 124, 213); stroke-width: 4; stroke-linejoin: round;"></path><g></g><text text-anchor="middle" x="10" y="93.66666666666666" font-size="12">32</text></g></g><g><g transform="translate(132, 50)"><path d="M 0 23.94736842105263 L 20 35 V 65 L 0 76.05263157894737 V 23.94736842105263 z" style="fill: rgb(139, 195, 74); stroke: rgb(113, 164, 54); stroke-width: 4; stroke-linejoin: round;"></path><g></g><text text-anchor="middle" x="10" y="93.05263157894737" font-size="12">32</text></g></g><g><g transform="translate(176, 50)"><path d="M 0 0 L 20 0 V 100 L 0 100 V 0 z" style="fill: rgb(244, 67, 54); stroke: rgb(244, 67, 54); stroke-width: 4; stroke-linejoin: round;"></path><g></g><text text-anchor="middle" x="10" y="117" font-size="12">41472</text></g></g><g><g transform="translate(220, 50)"><path d="M 0 0 L 20 0 V 100 L 0 100 V 0 z" style="fill: rgb(121, 85, 72); stroke: rgb(121, 85, 72); stroke-width: 4; stroke-linejoin: round;"></path><g></g><text text-anchor="middle" x="10" y="117" font-size="12">128</text></g></g><g><g transform="translate(264, 50)"><path d="M 0 0 L 20 0 V 100 L 0 100 V 0 z" style="fill: rgb(121, 85, 72); stroke: rgb(121, 85, 72); stroke-width: 4; stroke-linejoin: round;"></path><g></g><text text-anchor="middle" x="10" y="117" font-size="12">128</text></g></g><g><g transform="translate(308, 50)"><path d="M 0 35 L 20 35 V 65 L 0 65 V 35 z" style="fill: rgb(121, 85, 72); stroke: rgb(121, 85, 72); stroke-width: 4; stroke-linejoin: round;"></path><g></g><text text-anchor="middle" x="10" y="82" font-size="12">1</text></g></g></g></g></svg>
